<?xml version="1.0" standalone="no"?>
<!DOCTYPE svg PUBLIC "-//W3C//DTD SVG 20010904//EN"
 "http://www.w3.org/TR/2001/REC-SVG-20010904/DTD/svg10.dtd">
<svg version="1.0" xmlns="http://www.w3.org/2000/svg"
 width="1024.000000pt" height="1024.000000pt" viewBox="0 0 1024.000000 1024.000000"
 preserveAspectRatio="xMidYMid meet">
<metadata>
Created by potrace 1.16, written by Peter Selinger 2001-2019
</metadata>
<g transform="translate(0.000000,1024.000000) scale(0.100000,-0.100000)"
fill="#FFFFFF" stroke="#FFFFFF">
<path d="M4980 6849 c-649 -23 -1368 -222 -1913 -530 -133 -75 -394 -249 -489
-326 -202 -162 -389 -353 -574 -587 -92 -116 -113 -156 -82 -156 6 0 55 42
108 94 554 531 1409 961 2210 1110 339 63 510 79 840 78 309 0 500 -17 805
-73 375 -69 836 -229 1148 -398 l114 -62 12 -55 c16 -69 62 -138 125 -185 170
-128 425 -70 519 118 31 62 38 93 38 168 0 234 -232 393 -454 312 l-68 -25
-147 73 c-241 121 -458 203 -737 280 -487 134 -919 182 -1455 164z"/>
<path d="M6920 5411 c-337 -74 -608 -340 -695 -686 -37 -145 -37 -384 -1 -524
64 -250 245 -476 471 -589 307 -153 717 -126 976 64 60 44 200 194 193 205 -3
5 -37 34 -75 65 l-69 55 -83 -83 c-140 -143 -298 -208 -503 -208 -132 0 -233
23 -332 75 -272 143 -410 433 -373 787 34 318 206 542 489 636 66 22 96 26
207 26 110 1 142 -3 205 -22 114 -36 206 -89 284 -164 l69 -67 74 60 c40 33
73 66 73 73 0 17 -112 129 -166 167 -65 44 -183 98 -266 121 -109 29 -363 34
-478 9z"/>
<path d="M3272 5393 c-6 -16 -54 -140 -107 -278 -118 -303 -142 -366 -257
-660 -49 -126 -117 -300 -150 -385 -33 -85 -93 -237 -132 -337 l-73 -183 113
0 112 0 57 148 c32 81 76 194 99 252 l41 105 413 3 412 2 10 -22 c5 -13 50
-126 99 -253 l89 -230 111 -3 c61 -1 111 1 111 6 0 5 -23 67 -51 138 -28 71
-66 170 -86 219 -19 50 -126 320 -238 600 -111 281 -237 599 -279 708 l-78
197 -103 0 -103 0 -10 -27z m238 -578 c62 -159 137 -352 165 -427 l53 -138
-339 0 c-187 0 -339 4 -339 8 0 9 98 268 150 397 18 44 60 154 95 245 35 91
68 178 74 194 7 17 15 25 20 20 5 -5 60 -139 121 -299z"/>
<path d="M4550 4486 l0 -936 110 0 110 0 2 358 3 357 221 3 221 2 178 -292
c98 -161 197 -323 219 -360 l41 -68 123 0 123 0 -23 38 c-13 21 -72 120 -133
220 -60 100 -151 250 -202 333 l-92 150 27 10 c81 30 163 81 221 136 119 110
169 228 170 393 2 223 -116 417 -310 510 -142 68 -174 72 -616 77 l-393 5 0
-936z m745 734 c76 -11 179 -54 228 -96 80 -67 127 -175 127 -288 0 -172 -102
-305 -275 -358 -64 -20 -92 -22 -335 -23 l-265 0 -3 375 c-1 206 0 381 3 387
6 16 414 18 520 3z"/>
</g>
</svg>
